# AST/ASF file generated using VICON BodyLanguage
# -----------------------------------------------
:version 1.10
:name VICON
:units
  mass 1.0
  length 0.45
  angle deg
:documentation
   .ast/.asf automatically generated from VICON data using
   VICON BodyBuilder and BodyLanguage model FoxedUp or BRILLIANT.MOD
:root
   order TX TY TZ RX RY RZ
   axis XYZ
   position 0 0 0  
   orientation 0 0 0 
:bonedata
  begin
     id 1 
     name lhipjoint
     direction 0.521689 -0.742065 0.420928 
     length 2.47002 
     axis 0 0 0  XYZ
  end
  begin
     id 2 
     name lfemur
     direction 0.34202 -0.939693 0  
     length 7.24654  
     axis 0 0 20  XYZ
    dof rx ry rz
    limits (-160.0 20.0)
           (-70.0 70.0)
           (-60.0 70.0)
  end
  begin
     id 3 
     name ltibia
     direction 0.34202 -0.939693 0   
     length 8.04849   
     axis 0 0 20   XYZ
    dof rx
    limits (-10.0 170.0)
  end
  begin
     id 4 
     name lfoot
     direction 0.0745411 -0.2048 0.975961   
     length 1.72367   
     axis -90 7.62852e-016 20   XYZ
    dof rx rz
    limits (-45.0 90.0)
           (-70.0 20.0)
  end
  begin
     id 5 
     name ltoes
     direction 1.53556e-011 -4.21901e-011 1   
     length 0.87311   
     axis -90 7.62852e-016 20   XYZ
    dof rx
    limits (-90.0 20.0)
  end
  begin
     id 6 
     name rhipjoint
     direction -0.52849 -0.738415 0.418857   
     length 2.48223  
     axis 0 0 0  XYZ 
  end
  begin
     id 7 
     name rfemur
     direction -0.34202 -0.939693 0   
     length 7.15571   
     axis 0 0 -20   XYZ
    dof rx ry rz
    limits (-160.0 20.0)
           (-70.0 70.0)
           (-70.0 60.0)
  end
  begin
     id 8 
     name rtibia
     direction -0.34202 -0.939693 0   
     length 7.81659   
     axis 0 0 -20   XYZ
    dof rx
    limits (-10.0 170.0)
 end
 begin
     id 9 
     name rfoot
     direction -0.0917348 -0.252039 0.963359   
     length 1.84382  
     axis -90 -7.62852e-016 -20   XYZ
    dof rx rz
    limits (-45.0 90.0)
           (-20.0 70.0)
  end
  begin
     id 10 
     name rtoes
     direction -1.53551e-011 -4.21879e-011 1   
     length 0.927771   
     axis -90 -7.62852e-016 -20   XYZ
    dof rx
    limits (-90.0 20.0)
  end
  begin
     id 11 
     name lowerback
     direction 0.00583058 0.999822 0.0179296   
     length 2.1429   
     axis 0 0 0   XYZ
    dof rx ry rz
    limits (-20.0 45.0)
           (-30.0 30.0)
           (-30.0 30.0)
  end
  begin
     id 12 
     name upperback
     direction -0.0137999 0.999752 -0.0175071   
     length 2.14252   
     axis 0 0 0   XYZ
    dof rx ry rz
    limits (-20.0 45.0)
           (-30.0 30.0)
           (-30.0 30.0)
  end
  begin
     id 13 
     name thorax
     direction -0.0158036 0.99955 -0.0254909   
     length 2.1383   
     axis 0 0 0   XYZ
    dof rx ry rz
    limits (-20.0 45.0)
           (-30.0 30.0)
           (-30.0 30.0)
  end
  begin
     id 14 
     name lowerneck
     direction -0.0101179 0.999403 -0.0330262   
     length 1.65808   
     axis 0 0 0   XYZ
    dof rx ry rz
    limits (-20.0 45.0)
           (-30.0 30.0)
           (-30.0 30.0)
  end
  begin
     id 15 
     name upperneck
     direction 0.0497734 0.995978 -0.074501   
     length 1.5897   
     axis 0 0 0   XYZ
    dof rx ry rz
    limits (-20.0 45.0)
           (-30.0 30.0)
           (-30.0 30.0)
  end
  begin
     id 16
     name head
     direction 0.0189524 0.999519 -0.0245438  
     length 1.74024  
     axis 0 0 0   XYZ
    dof rx ry rz
    limits (-20.0 45.0)
           (-30.0 30.0)
           (-30.0 30.0)
  end
  begin
     id 17 
     name lclavicle
     direction 0.945604 0.324422 0.0241537  
     length 3.59089  
     axis 0 0 0   XYZ
    dof ry rz
    limits (-20.0 10.0)
           (0.0 20.0)
  end
  begin
     id 18 
     name lhumerus
     direction 1 -4.48964e-011 -2.63524e-027   
     length 5.2391   
     axis 180 -30 -90   XYZ
    dof rx ry rz
    limits (-60.0 90.0)
           (-90.0 90.0)
           (-90.0 90.0)
  end
  begin
     id 19
     name lradius
     direction 1 -4.48969e-011 3.86978e-028   
     length 3.31467   
     axis 180 -30 -90   XYZ
    dof rx
    limits (-10.0 170.0)
  end
  begin
     id 20
     name lwrist
     direction 1 -4.48963e-011 7.20928e-028   
     length 1.65734   
     axis -5.52449e-016 90 90   XYZ
    dof ry
    limits (-180.0 0.0)
 end
  begin
     id 21 
     name lhand
     direction 1 -4.48964e-011 1.44186e-027   
     length 0.9659   
     axis -9.20027e-016 90 90   XYZ
    dof rx rz
    limits (-90.0 90.0)
           (-45.0 45.0)
  end
  begin
     id 22 
     name lfingers
     direction 1 -4.48965e-011 2.88371e-027   
     length 0.778733   
     axis -1.84005e-015 90 90   XYZ
    dof rx
    limits (0.0 90.0)
  end
  begin
     id 23
     name lthumb
     direction 0.707107 -6.34931e-011 0.707107   
     length 1.11811   
     axis -90 45 2.85299e-015   XYZ
    dof rx rz
    limits (-45.0 45.0)
           (-45.0 45.0)
  end
  begin
     id 24 
     name rclavicle
     direction -0.923762 0.370785 0.0958234   
     length 3.54196  
     axis 0 0 0   XYZ 
    dof ry rz
    limits (-10.0 20.0)
           (-20.0 0.0)
  end
  begin
     id 25 
     name rhumerus
     direction -1 -4.48966e-011 1.18702e-017  
     length 5.30252   
     axis 180 30 90   XYZ
    dof rx ry rz
    limits (-90.0 60.0)
           (-90.0 90.0)
           (-90.0 90.0)
  end
  begin
     id 26 
     name rradius
     direction -1 -4.48966e-011 4.46736e-027   
     length 3.67875   
     axis 180 30 90   XYZ
    dof rx
    limits (-10.0 170.0)
  end
  begin
     id 27 
     name rwrist
     direction -1 -4.48966e-011 7.20928e-028   
     length 1.83937   
     axis -5.52449e-016 -90 -90   XYZ
    dof ry
    limits (-180.0 0.0)
  end
  begin
     id 28
     name rhand
     direction -1 -4.48973e-011 1.44186e-027   
     length 0.594811   
     axis -9.20027e-016 -90 -90   XYZ
    dof rx rz
    limits (-90.0 90.0)
           (-45.0 45.0)
  end
  begin
     id 29
     name rfingers
     direction -1 -4.48963e-011 2.88371e-027   
     length 0.479552   
     axis -1.84005e-015 -90 -90   XYZ
    dof rx
    limits (0.0 90.0)
  end
  begin
     id 30
     name rthumb
     direction -0.707107 -6.34932e-011 0.707107   
     length 0.688544   
     axis -90 -45 -2.85299e-015   XYZ
    dof rx rz
    limits (-45.0 45.0)
           (-45.0 45.0)
  end
:hierarchy
  begin
    root lhipjoint rhipjoint lowerback
    lhipjoint lfemur
    lfemur ltibia
    ltibia lfoot
    lfoot ltoes
    rhipjoint rfemur
    rfemur rtibia
    rtibia rfoot
    rfoot rtoes
    lowerback upperback
    upperback thorax
    thorax lowerneck lclavicle rclavicle
    lowerneck upperneck
    upperneck head
    lclavicle lhumerus
    lhumerus lradius
    lradius lwrist
    lwrist lhand lthumb
    lhand lfingers
    rclavicle rhumerus
    rhumerus rradius
    rradius rwrist
    rwrist rhand rthumb
    rhand rfingers
  end

#!OML:ASF E:\acrobat2\Project_11_07_03\Capture day 1\Session 1\Acrobat.ASF
:FULLY-SPECIFIED
:DEGREES
284
root 10.9454 5.07573 10.8816 -100.2 -2.56191 -0.512306
lowerback 17.518 0.712332 2.40061
upperback 0.557405 1.14741 -3.17665
thorax -9.13358 0.377071 -5.11935
lowerneck -0.0686155 1.13799 -0.917212
upperneck -2.66205 1.75766 11.0231
head -0.957415 0.794256 3.72606
rclavicle -6.36111e-015 4.92986e-014
rhumerus -45.2543 -18.0535 -35.2039
rradius 115.09
rwrist -27.0166
rhand -30.675 -47.1236
rfingers 7.12502
rthumb -3.96926 282.934
lclavicle -6.36111e-015 4.92986e-014
lhumerus -29.3819 51.9362 15.7465
lradius 101.48
lwrist 42.2122
lhand -31.1005 -11.6762
lfingers 7.12502
lthumb -4.38019 18.2585
rfemur 16.255 1.52658 5.14195
rtibia 3.18055e-015
rfoot -23.7906 -23.0459
rtoes 45.5319
lfemur 2.81073 -2.01801 0.719091
ltibia 23.4614
lfoot -11.467 11.1248
ltoes 33.0742
285
root 10.9423 5.07594 10.8793 -100.131 -2.56456 -0.534509
lowerback 17.4606 0.743965 2.48984
upperback 0.543062 1.20291 -3.22644
thorax -9.10873 0.39945 -5.23758
lowerneck -0.205213 1.07981 -0.927028
upperneck -2.55929 1.66777 11.062
head -0.894672 0.757056 3.74245
rclavicle -1.43125e-014 -4.91992e-014
rhumerus -45.4172 -18.1613 -35.1752
rradius 115.095
rwrist -26.955
rhand -30.7695 -46.8646
rfingers 7.12502
rthumb -4.06056 283.194
lclavicle -1.43125e-014 -4.91992e-014
lhumerus -28.5442 51.6483 16.4909
lradius 101.455
lwrist 41.9387
lhand -31.0014 -11.4725
lfingers 7.12502
lthumb -4.28451 18.4642
rfemur 16.1865 1.48538 5.14978
rtibia 4.21423e-014
rfoot -23.7694 -23.1376
rtoes 45.2485
lfemur 2.73104 -1.95351 0.74567
ltibia 23.4538
lfoot -11.4035 11.1465
ltoes 33.2154
286
root 10.9401 5.07642 10.8788 -100.067 -2.57116 -0.563998
lowerback 17.3953 0.767186 2.60537
upperback 0.534022 1.25201 -3.27985
thorax -9.07337 0.417946 -5.3728
lowerneck -0.387365 1.03072 -0.951419
upperneck -2.40999 1.58466 11.1075
head -0.809581 0.726307 3.76387
rclavicle -1.11319e-014 1.51076e-014
rhumerus -45.5849 -18.273 -35.1097
rradius 115.131
rwrist -26.9726
rhand -30.8595 -46.6813
rfingers 7.12502
rthumb -4.1475 283.379
lclavicle -1.11319e-014 1.51076e-014
lhumerus -28.4401 51.226 16.6565
lradius 101.714
lwrist 41.7273
lhand -30.9465 -11.1785
lfingers 7.12502
lthumb -4.23144 18.7592
rfemur 16.1313 1.43906 5.155
rtibia 3.57812e-014
rfoot -23.7337 -23.1616
rtoes 45.2734
lfemur 2.6711 -1.92238 0.764177
ltibia 23.4186
lfoot -11.3895 11.131
ltoes 33.1068
287
root 10.9392 5.07583 10.8785 -99.9954 -2.58989 -0.548651
lowerback 17.3112 0.770901 2.63768
upperback 0.519745 1.26178 -3.28514
thorax -9.04008 0.421907 -5.39662
lowerneck -0.382691 0.987918 -0.869741
upperneck -2.39612 1.52396 10.9818
head -0.799338 0.696353 3.70402
rclavicle -1.59028e-015 -1.23992e-014
rhumerus -45.5869 -18.2957 -35.1125
rradius 115.164
rwrist -26.9813
rhand -30.7413 -46.7993
rfingers 7.12502
rthumb -4.03333 283.259
lclavicle -1.59028e-015 -1.23992e-014
lhumerus -28.2673 50.9317 16.8735
lradius 101.791
lwrist 41.1309
lhand -31.603 -11.508
lfingers 7.12502
lthumb -4.86539 18.4162
rfemur 16.05 1.43065 5.17955
rtibia 2.38542e-014
rfoot -23.7615 -23.1357
rtoes 45.2665
lfemur 2.63203 -1.96581 0.771783
ltibia 23.367
lfoot -10.0862 11.1369
ltoes 29.9117
288
root 10.9377 5.07543 10.8804 -100.069 -2.65963 -0.524814
lowerback 17.3774 0.76672 2.74417
upperback 0.541164 1.27802 -3.29631
thorax -9.04937 0.425088 -5.47642
lowerneck -0.620831 0.991685 -0.922577
upperneck -2.08244 1.49736 11.1668
head -0.657587 0.700898 3.77962
rclavicle -4.77083e-015 -1.13307e-014
rhumerus -45.6444 -18.295 -35.1166
rradius 115.183
rwrist -27.0402
rhand -30.5847 -46.9524
rfingers 7.12502
rthumb -3.88211 283.103
lclavicle -4.77083e-015 -1.13307e-014
lhumerus -28.1271 50.6929 17.0608
lradius 101.907
lwrist 40.611
lhand -31.6497 -12.094
lfingers 7.12502
lthumb -4.91054 17.8291
rfemur 16.1301 1.46125 5.24939
rtibia 3.18055e-015
rfoot -23.882 -23.0467
rtoes 45.3552
lfemur 2.74897 -1.98854 0.857898
ltibia 23.2949
lfoot -11.4752 11.1042
ltoes 33.5529
289
root 10.9355 5.07469 10.8774 -99.9027 -2.62662 -0.556512
lowerback 17.2085 0.772906 2.70848
upperback 0.506044 1.27394 -3.3206
thorax -8.99403 0.42505 -5.47566
lowerneck -1.03067 1.04578 -1.01222
upperneck -1.63184 1.52131 11.4307
head -0.446094 0.741324 3.89189
rclavicle 6.36111e-015 6.36111e-015
rhumerus -45.6649 -18.2936 -35.1106
rradius 115.183
rwrist -27.1179
rhand -30.5929 -46.8379
rfingers 7.12502
rthumb -3.89003 283.218
lclavicle 6.36111e-015 6.36111e-015
lhumerus -28.0583 50.4291 17.1975
lradius 101.994
lwrist 40.1836
lhand -31.5768 -12.7076
lfingers 7.12502
lthumb -4.84006 17.2172
rfemur 15.9678 1.39819 5.18811
rtibia -9.54166e-015
rfoot -23.9606 -23.0382
rtoes 45.4909
lfemur 2.56347 -1.98313 0.827088
ltibia 23.2534
lfoot -10.2026 11.1288
ltoes 31.1755
290
root 10.9356 5.07488 10.8857 -100.013 -2.70192 -0.52438
lowerback 17.3067 0.771529 2.80748
upperback 0.556593 1.29558 -3.30744
thorax -8.9892 0.432861 -5.52592
lowerneck -0.864564 0.970729 -0.832794
upperneck -1.91307 1.44682 11.1599
head -0.555822 0.688398 3.76069
rclavicle 2.8625e-014 1.6524e-014
rhumerus -45.6626 -18.3377 -35.1473
rradius 115.19
rwrist -27.1144
rhand -30.4859 -46.8141
rfingers 7.12502
rthumb -3.78666 283.24
lclavicle 2.8625e-014 1.6524e-014
lhumerus -27.9497 50.1205 17.3962
lradius 102.073
lwrist 39.7669
lhand -31.9331 -12.97
lfingers 7.12502
lthumb -5.18416 16.9466
rfemur 16.0665 1.43884 5.29655
rtibia -5.40694e-014
rfoot -23.8446 -23.2219
rtoes 45.2005
lfemur 2.6444 -2.11038 0.920287
ltibia 23.2154
lfoot -11.6533 11.0601
ltoes 34.3751
291
root 10.9336 5.07474 10.8768 -99.8006 -2.65039 -0.561236
lowerback 17.0632 0.771975 2.73926
upperback 0.544636 1.27587 -3.33863
thorax -8.86892 0.428912 -5.5061
lowerneck -0.573757 0.85582 -0.60969
upperneck -2.36013 1.33484 10.7717
head -0.736509 0.607803 3.5817
rclavicle 9.54166e-015 -1.02623e-014
rhumerus -45.6083 -18.3947 -35.2255
rradius 115.197
rwrist -27.131
rhand -30.3442 -47.0416
rfingers 7.12502
rthumb -3.64984 283.01
lclavicle 9.54166e-015 -1.02623e-014
lhumerus -27.9239 49.9112 17.5292
lradius 102.203
lwrist 39.3862
lhand -32.2465 -13.0072
lfingers 7.12502
lthumb -5.48677 16.9017
rfemur 15.8451 1.35396 5.25603
rtibia 1.35174e-014
rfoot -23.7832 -23.3167
rtoes 45.15
lfemur 2.45671 -2.01199 0.850848
ltibia 23.2066
lfoot -10.1772 11.1103
ltoes 32.302
292
root 10.9341 5.0746 10.8839 -99.9581 -2.77964 -0.51959
lowerback 17.1918 0.71926 2.85391
upperback 0.617708 1.2339 -3.3038
thorax -8.8639 0.406079 -5.52662
lowerneck -0.696517 0.874734 -0.560117
upperneck -2.30136 1.35014 10.714
head -0.695931 0.620661 3.55206
rclavicle -7.15625e-015 -2.07481e-014
rhumerus -45.4311 -18.3803 -35.3336
rradius 115.162
rwrist -27.1627
rhand -30.312 -47.1577
rfingers 7.12502
rthumb -3.61874 282.893
lclavicle -7.15625e-015 -2.07481e-014
lhumerus -28.2324 49.8056 17.3872
lradius 102.369
lwrist 39.0776
lhand -32.5152 -13.1685
lfingers 7.12502
lthumb -5.7462 16.7336
rfemur 16.0099 1.40939 5.40778
rtibia 2.3059e-014
rfoot -23.8406 -23.3031
rtoes 45.2
lfemur 2.60128 -2.01357 1.01059
ltibia 23.1671
lfoot -11.3695 11.1025
ltoes 34.2264
293
root 10.933 5.07514 10.8835 -100.023 -2.83125 -0.493477
lowerback 17.2482 0.709833 2.91695
upperback 0.644551 1.23576 -3.2973
thorax -8.86464 0.405035 -5.55771
lowerneck -0.860211 0.880983 -0.662537
upperneck -2.15634 1.34307 10.8404
head -0.62253 0.627223 3.61614
rclavicle 4.05521e-014 -2.11209e-015
rhumerus -45.4277 -18.4132 -35.3775
rradius 115.173
rwrist -27.0862
rhand -30.2463 -47.21
rfingers 7.12502
rthumb -3.55536 282.84
lclavicle 4.05521e-014 -2.11209e-015
lhumerus -28.1928 49.7889 17.4899
lradius 102.367
lwrist 38.7246
lhand -31.3824 -14.387
lfingers 7.12502
lthumb -4.65239 15.5419
rfemur 16.078 1.4392 5.47821
rtibia -3.49861e-014
rfoot -23.9472 -23.2762
rtoes 45.2094
lfemur 2.69915 -2.00732 1.08241
ltibia 23.2094
lfoot -11.4045 10.969
ltoes 34.3908
294
root 10.9325 5.07405 10.8816 -99.8431 -2.72454 -0.50253
lowerback 17.1012 0.737864 2.83363
upperback 0.580181 1.24963 -3.34032
thorax -8.85222 0.413326 -5.55647
lowerneck -0.937628 0.859255 -0.777008
upperneck -2.03323 1.30317 10.9751
head -0.56926 0.614426 3.68567
rclavicle -6.36111e-015 2.41275e-014
rhumerus -45.528 -18.4274 -35.3651
rradius 115.222
rwrist -27.0195
rhand -30.1967 -47.3
rfingers 7.12502
rthumb -3.50739 282.749
lclavicle -6.36111e-015 2.41275e-014
lhumerus -28.1301 49.575 17.6448
lradius 102.392
lwrist 38.4591
lhand -31.4644 -14.4825
lfingers 7.12502
lthumb -4.73154 15.4447
rfemur 15.886 1.40939 5.33276
rtibia -6.44062e-014
rfoot -24.0799 -23.2024
rtoes 45.3579
lfemur 2.49881 -2.20852 0.920402
ltibia 23.1796
lfoot -10.4618 11.0071
ltoes 33.3515
295
root 10.9314 5.07435 10.8826 -100.14 -2.84738 -0.448437
lowerback 17.4465 0.72292 2.99355
upperback 0.630094 1.26994 -3.3203
thorax -8.98549 0.413738 -5.64467
lowerneck -1.10431 0.872923 -0.801366
upperneck -1.81121 1.29835 11.0937
head -0.469889 0.624792 3.73256
rclavicle 2.8625e-014 -3.54085e-014
rhumerus -45.5662 -18.423 -35.3705
rradius 115.241
rwrist -27.0241
rhand -30.2084 -47.3327
rfingers 7.12502
rthumb -3.51873 282.717
lclavicle 2.8625e-014 -3.54085e-014
lhumerus -28.0984 49.368 17.7131
lradius 102.435
lwrist 38.2828
lhand -31.3114 -15.0818
lfingers 7.12502
lthumb -4.58385 14.8486
rfemur 16.1897 1.51338 5.47956
rtibia 2.38542e-015
rfoot -24.1122 -23.1616
rtoes 45.4437
lfemur 2.79737 -2.01918 1.11206
ltibia 23.2756
lfoot -11.3316 10.9555
ltoes 33.7556
